<svg width="25" height="24" viewBox="0 0 25 24" fill="none" xmlns="http://www.w3.org/2000/svg">
<path d="M19.0626 18.11L18.6099 18.5626C18.36 18.8125 17.9547 18.8125 17.7047 18.5626L12.5 13.3578L7.2952 18.5625C7.04529 18.8125 6.64002 18.8125 6.39006 18.5625L5.93747 18.1099C5.68751 17.86 5.68751 17.4547 5.93747 17.2047L11.1423 12L5.93747 6.7952C5.68751 6.54529 5.68751 6.14002 5.93747 5.89006L6.39005 5.43748C6.64001 5.18752 7.04529 5.18752 7.2952 5.43748L12.5 10.6423L17.7047 5.43747C17.9547 5.18751 18.36 5.18751 18.6099 5.43747L19.0626 5.89005C19.3125 6.14001 19.3125 6.54529 19.0626 6.7952L13.8578 12L19.0626 17.2047C19.3125 17.4547 19.3125 17.86 19.0626 18.11Z" fill="white"/>
</svg>
