<svg width="266" height="41" viewBox="0 0 266 41" fill="none" xmlns="http://www.w3.org/2000/svg">
<path d="M55.3643 22.8804L52.4891 15.7162L49.6672 22.8804H55.3643ZM46.8452 30.0445H41.7338L50.0931 10.9037H54.9118L63.2712 30.0445H58.1597L56.5357 26.1616H48.4692L46.8452 30.0445ZM69.9012 19.4077H75.0925C75.4919 19.4077 75.9444 19.3803 76.4236 19.2983C76.9028 19.2436 77.3022 19.0249 77.6749 18.642C77.808 18.5053 77.9411 18.2866 78.0742 18.0131C78.2073 17.7397 78.2872 17.4116 78.2872 17.0014C78.2872 16.5092 78.1807 16.1264 77.9944 15.8256C77.7814 15.5248 77.595 15.3061 77.382 15.142C77.2223 15.06 77.0626 14.9779 76.8496 14.9233C76.6366 14.8686 76.397 14.8412 76.184 14.8139C75.9711 14.7865 75.7581 14.7592 75.5451 14.7592C75.3321 14.7592 75.1458 14.7318 75.0393 14.7318H69.9012V19.4077ZM65.0026 10.9037H76.0243C76.4769 10.9037 76.9827 10.931 77.5152 10.9584C78.0476 10.9857 78.6067 11.0678 79.1391 11.1771C79.6716 11.2865 80.204 11.4779 80.7098 11.6967C81.2156 11.9154 81.6682 12.2435 82.0676 12.6264C82.6 13.2006 82.9461 13.8295 83.1058 14.4858C83.2656 15.142 83.3454 15.7436 83.3454 16.2631C83.3454 16.9194 83.2389 17.5209 83.0792 18.0952C82.8928 18.6694 82.5734 19.1889 82.1208 19.6538C81.8013 19.9819 81.4286 20.2827 81.0027 20.5014C80.5767 20.7202 80.1508 20.8842 79.7248 20.9936V21.103C80.0975 21.185 80.4968 21.3217 80.8962 21.5132C81.2689 21.7046 81.615 21.9507 81.9078 22.2514C82.1208 22.4975 82.2805 22.7436 82.4136 22.9624C82.5201 23.2085 82.6266 23.4546 82.6799 23.7007C82.7331 23.9468 82.7597 24.1929 82.7864 24.439C82.7864 24.6851 82.813 24.9312 82.8396 25.1499L82.9727 27.3101C82.9993 27.8023 83.0526 28.2398 83.1591 28.6499C83.2389 29.0874 83.4253 29.5523 83.7448 30.0445H78.5534C78.234 29.6343 78.0476 29.2515 77.9944 28.8687C77.9145 28.5132 77.8612 28.1031 77.8346 27.6109L77.7548 26.0249C77.7015 25.4507 77.6216 24.9585 77.4619 24.5757C77.3022 24.1929 77.0892 23.9194 76.8762 23.7007C76.61 23.4819 76.2373 23.2905 75.7847 23.1811C75.3321 23.0718 74.9062 23.0171 74.4802 23.0171H69.9012V30.0445H65.0026V10.9037ZM101.989 18.5053V22.1147H91.7658V26.2163H104.145V30.0445H86.8673V10.9037H103.852V14.7318H91.7658V18.5053H101.989ZM106.093 14.7318V10.9037H123.983V14.7318H117.488V30.0445H112.589V14.7318H106.093ZM141.48 18.5053V22.1147H131.257V26.2163H143.636V30.0445H126.359V10.9037H143.344V14.7318H131.257V18.5053H141.48ZM156.534 23.8374V23.9468C156.534 24.4116 156.587 24.7944 156.747 25.0679C156.88 25.3687 157.039 25.6148 157.252 25.7788C157.465 26.0249 157.758 26.2163 158.078 26.353C158.397 26.4898 158.717 26.5991 159.036 26.6538C159.356 26.7359 159.675 26.7905 159.994 26.7905C160.314 26.8179 160.58 26.8179 160.846 26.8179C161.539 26.8179 162.098 26.7905 162.524 26.7085C162.923 26.6538 163.242 26.5445 163.509 26.3804C163.908 26.1616 164.201 25.8882 164.414 25.5054C164.627 25.1499 164.733 24.7944 164.733 24.4663C164.733 24.2476 164.653 24.0015 164.494 23.6733C164.334 23.3452 163.988 23.0718 163.429 22.8257C163.269 22.771 163.083 22.7163 162.87 22.6616C162.657 22.6069 162.417 22.5249 162.177 22.4702C161.911 22.4155 161.672 22.3882 161.432 22.3335C161.192 22.2788 161.006 22.2514 160.846 22.1968L158.158 21.7593C157.625 21.7046 157.119 21.6225 156.587 21.5132C156.054 21.4038 155.522 21.2944 155.043 21.1303C154.537 20.9663 154.084 20.7749 153.658 20.5561C153.232 20.3374 152.86 20.0366 152.567 19.6811C152.354 19.435 152.114 19.0795 151.875 18.5874C151.635 18.0952 151.529 17.4389 151.529 16.6186C151.529 15.5248 151.742 14.5678 152.168 13.7475C152.593 12.9545 153.232 12.2709 154.084 11.724C154.537 11.4506 155.016 11.2045 155.549 11.0131C156.054 10.849 156.56 10.7123 157.093 10.6029C157.625 10.4935 158.131 10.4388 158.663 10.4115C159.196 10.3842 159.702 10.3568 160.181 10.3568C161.858 10.3568 163.216 10.4935 164.227 10.7123C165.239 10.9584 166.038 11.2592 166.677 11.642C167.209 11.9701 167.662 12.3529 168.008 12.7357C168.327 13.1186 168.593 13.5287 168.78 13.9389C168.94 14.349 169.073 14.7592 169.126 15.142C169.179 15.5522 169.179 15.935 169.179 16.2905H164.227C164.174 15.9623 164.094 15.6342 163.934 15.3334C163.775 15.0326 163.509 14.7592 163.109 14.5404C162.896 14.4311 162.63 14.349 162.364 14.267C162.098 14.2123 161.805 14.1576 161.539 14.1029C161.272 14.0756 161.006 14.0483 160.74 14.0483C160.474 14.0483 160.287 14.0209 160.128 14.0209C159.648 14.0209 159.196 14.0756 158.743 14.1303C158.264 14.2123 157.891 14.349 157.572 14.5404C157.252 14.7592 157.039 15.0053 156.88 15.2787C156.72 15.5795 156.64 15.8803 156.64 16.2084C156.64 16.6459 156.773 16.9741 157.066 17.1928C157.359 17.4116 157.652 17.5483 157.971 17.6577C158.078 17.7123 158.237 17.767 158.397 17.8217C158.557 17.8764 158.77 17.9038 159.009 17.9584C159.249 18.0131 159.542 18.0952 159.888 18.1498C160.234 18.2045 160.66 18.2866 161.166 18.3413L163.296 18.6967C164.121 18.8608 164.973 19.0249 165.825 19.2436C166.677 19.4624 167.395 19.8178 168.034 20.2827C168.806 20.8842 169.312 21.5678 169.552 22.3335C169.791 23.0991 169.925 23.8101 169.925 24.4663C169.925 25.6421 169.685 26.5991 169.259 27.3374C168.833 28.1031 168.327 28.6773 167.742 29.1148C167.475 29.3062 167.182 29.4976 166.836 29.6617C166.464 29.8257 166.038 29.9898 165.532 30.1265C164.999 30.2632 164.387 30.3726 163.668 30.4546C162.95 30.564 162.124 30.5914 161.166 30.5914C160.42 30.5914 159.648 30.5914 158.876 30.5367C158.104 30.482 157.359 30.4 156.64 30.2359C155.921 30.0992 155.256 29.8804 154.617 29.5796C153.978 29.2788 153.419 28.8687 152.94 28.3492C152.593 27.9937 152.327 27.6109 152.114 27.2007C151.901 26.8179 151.768 26.4077 151.662 26.0249C151.555 25.6421 151.475 25.2866 151.449 24.9038C151.422 24.5483 151.422 24.2202 151.422 23.9468V23.8374H156.534ZM170.777 14.7318V10.9037H188.667V14.7318H182.171V30.0445H177.273V14.7318H170.777ZM209.176 22.5249C209.176 22.9077 209.149 23.3452 209.122 23.8101C209.096 24.3022 209.016 24.7944 208.909 25.2866C208.776 25.8062 208.59 26.3257 208.324 26.8452C208.058 27.3648 207.711 27.857 207.286 28.2945C206.78 28.814 206.247 29.2242 205.662 29.5249C205.076 29.8257 204.464 30.0445 203.825 30.1812C203.186 30.3453 202.52 30.4273 201.855 30.482C201.189 30.5367 200.55 30.5367 199.911 30.5367C199.272 30.5367 198.607 30.5367 197.941 30.482C197.276 30.4273 196.637 30.3453 195.998 30.1812C195.359 30.0445 194.746 29.8257 194.161 29.5249C193.575 29.2242 193.016 28.814 192.537 28.2945C192.084 27.857 191.738 27.3648 191.472 26.8452C191.206 26.3257 191.019 25.8062 190.913 25.2866C190.78 24.7944 190.7 24.3022 190.673 23.8101C190.647 23.3452 190.647 22.9077 190.647 22.5249V10.9037H195.545V22.0053C195.545 22.2241 195.545 22.4975 195.545 22.7983C195.545 23.0991 195.598 23.3999 195.678 23.728C195.731 24.0561 195.838 24.3569 195.998 24.6851C196.131 25.0132 196.317 25.2866 196.583 25.5327C196.796 25.8062 197.063 25.9976 197.382 26.1343C197.675 26.271 197.968 26.3804 198.287 26.4351C198.58 26.5171 198.873 26.5718 199.166 26.5718C199.432 26.5991 199.698 26.5991 199.911 26.5991C200.124 26.5991 200.364 26.5991 200.657 26.5718C200.923 26.5718 201.216 26.5171 201.535 26.4351C201.828 26.3804 202.121 26.271 202.414 26.1343C202.706 25.9976 202.973 25.8062 203.239 25.5327C203.479 25.2866 203.665 25.0132 203.825 24.6851C203.958 24.3569 204.064 24.0561 204.117 23.728C204.171 23.3999 204.224 23.0991 204.251 22.7983C204.251 22.4975 204.277 22.2241 204.277 22.0053V10.9037H209.176V22.5249ZM217.935 26.2163H220.757C221.077 26.2163 221.423 26.2163 221.849 26.189C222.248 26.189 222.674 26.1343 223.127 26.0523C223.553 25.9702 224.005 25.8335 224.431 25.6421C224.857 25.478 225.256 25.2319 225.629 24.9038C226.082 24.521 226.481 23.9468 226.854 23.2085C227.2 22.4975 227.386 21.5678 227.386 20.4467C227.386 19.2983 227.2 18.3413 226.854 17.6303C226.481 16.9194 226.108 16.3998 225.736 16.0444C225.363 15.7436 224.99 15.4975 224.591 15.3061C224.165 15.142 223.766 15.0053 223.366 14.9233C222.94 14.8412 222.541 14.7865 222.142 14.7592C221.742 14.7592 221.37 14.7318 221.05 14.7318H217.935V26.2163ZM221.689 10.9037C222.434 10.9037 223.18 10.9584 223.952 11.0404C224.697 11.1224 225.443 11.2592 226.188 11.4506C226.907 11.6693 227.599 11.9428 228.265 12.2709C228.93 12.6264 229.543 13.0639 230.075 13.5834C230.607 14.1303 231.033 14.7045 231.353 15.3061C231.672 15.9076 231.939 16.5092 232.125 17.1108C232.285 17.7123 232.418 18.3139 232.471 18.8608C232.524 19.435 232.551 19.9546 232.551 20.3921C232.551 21.3217 232.471 22.1694 232.311 22.9077C232.152 23.646 231.965 24.3022 231.726 24.8765C231.486 25.4507 231.22 25.9429 230.927 26.353C230.634 26.7905 230.341 27.146 230.075 27.4195C229.436 28.0757 228.744 28.5679 227.998 28.896C227.226 29.2515 226.454 29.5249 225.656 29.689C224.857 29.8531 224.085 29.9624 223.34 29.9898C222.568 30.0445 221.875 30.0445 221.236 30.0445H213.037V10.9037H221.689ZM240.632 10.9037V30.0445H235.733V10.9037H240.632ZM254.925 14.185C254.286 14.185 253.621 14.2943 252.902 14.4584C252.183 14.6225 251.518 15.0326 250.879 15.6615C250.479 16.0444 250.16 16.4819 249.947 16.9194C249.734 17.3569 249.547 17.7944 249.441 18.2319C249.335 18.6694 249.255 19.1069 249.228 19.4897C249.175 19.8725 249.175 20.2006 249.175 20.4741C249.175 20.7475 249.175 21.103 249.228 21.4858C249.255 21.8686 249.335 22.2788 249.441 22.7163C249.547 23.1538 249.734 23.6186 249.947 24.0561C250.16 24.4937 250.479 24.9038 250.879 25.2866C251.518 25.9429 252.183 26.353 252.902 26.5171C253.621 26.6812 254.286 26.7632 254.925 26.7632C255.537 26.7632 256.203 26.6812 256.922 26.5171C257.641 26.353 258.333 25.9429 258.972 25.2866C259.344 24.9038 259.664 24.4937 259.877 24.0561C260.09 23.6186 260.276 23.1538 260.383 22.7163C260.489 22.2788 260.569 21.8686 260.622 21.4858C260.649 21.103 260.676 20.7475 260.676 20.4741C260.676 20.2006 260.649 19.8725 260.622 19.4897C260.569 19.1069 260.489 18.6694 260.383 18.2319C260.276 17.7944 260.09 17.3569 259.877 16.9194C259.664 16.4819 259.344 16.0444 258.972 15.6615C258.333 15.0326 257.641 14.6225 256.922 14.4584C256.203 14.2943 255.537 14.185 254.925 14.185ZM266 20.4741C266 21.0483 265.947 21.6499 265.894 22.2514C265.814 22.8804 265.681 23.5093 265.468 24.1382C265.255 24.7671 264.935 25.396 264.562 26.0249C264.19 26.6538 263.684 27.2554 263.072 27.8023C262.699 28.1304 262.273 28.4585 261.794 28.7867C261.315 29.1148 260.729 29.4156 260.063 29.689C259.398 29.9624 258.652 30.1812 257.8 30.3453C256.948 30.5093 255.99 30.5914 254.925 30.5914C253.86 30.5914 252.902 30.5093 252.05 30.3453C251.198 30.1812 250.426 29.9624 249.76 29.689C249.095 29.4156 248.509 29.1148 248.03 28.7867C247.551 28.4585 247.125 28.1304 246.779 27.8023C246.14 27.2554 245.634 26.6538 245.261 26.0249C244.889 25.396 244.596 24.7671 244.383 24.1382C244.17 23.5093 244.01 22.8804 243.957 22.2514C243.877 21.6499 243.85 21.0483 243.85 20.4741C243.85 19.9272 243.877 19.3256 243.957 18.6967C244.01 18.0952 244.17 17.4662 244.383 16.8373C244.596 16.2084 244.889 15.5795 245.261 14.9506C245.634 14.349 246.14 13.7475 246.779 13.1459C247.125 12.8178 247.551 12.4896 248.03 12.1615C248.509 11.8334 249.095 11.5599 249.76 11.2865C250.426 11.0131 251.198 10.7943 252.05 10.6303C252.902 10.4662 253.86 10.3568 254.925 10.3568C255.99 10.3568 256.948 10.4662 257.8 10.6303C258.652 10.7943 259.398 11.0131 260.063 11.2865C260.729 11.5599 261.315 11.8334 261.794 12.1615C262.273 12.4896 262.699 12.8178 263.072 13.1459C263.684 13.7475 264.19 14.349 264.562 14.9506C264.935 15.5795 265.255 16.2084 265.468 16.8373C265.681 17.4662 265.814 18.0952 265.894 18.6967C265.947 19.3256 266 19.9272 266 20.4741Z" fill="#F1EEEB"/>
<path d="M0 4.42669C0 4.12059 0.24815 3.87244 0.554258 3.87244H27.1586C27.4647 3.87244 27.7129 4.12059 27.7129 4.42669V9.96927H0V4.42669Z" fill="#F1EEEB"/>
<path d="M0 31.0309H27.7129V36.5735C27.7129 36.8797 27.4647 37.1277 27.1586 37.1277H0.554258C0.248149 37.1277 0 36.8797 0 36.5735V31.0309Z" fill="#F1EEEB"/>
<path d="M27.7128 11.354V29.6445H16.6277V11.354H27.7128Z" fill="#F1EEEB"/>
<path d="M11.0851 29.6445L11.0851 11.354H-7.05719e-05L-7.05719e-05 29.6445H11.0851Z" fill="#F1EEEB"/>
</svg>
