<svg width="24" height="25" viewBox="0 0 24 25" fill="none" xmlns="http://www.w3.org/2000/svg">
<path d="M12.0001 2.49951C8.00613 2.49951 4.75684 5.74881 4.75684 9.74271C4.75684 14.6993 11.2388 21.9758 11.5148 22.2831C11.774 22.5718 12.2266 22.5713 12.4854 22.2831C12.7613 21.9758 19.2433 14.6993 19.2433 9.74271C19.2432 5.74881 15.994 2.49951 12.0001 2.49951ZM12.0001 13.387C9.99062 13.387 8.35586 11.7522 8.35586 9.74271C8.35586 7.73326 9.99066 6.09849 12.0001 6.09849C14.0095 6.09849 15.6443 7.7333 15.6443 9.74275C15.6443 11.7522 14.0095 13.387 12.0001 13.387Z" fill="#1C1C1C"/>
</svg>
