<svg width="120" height="120" viewBox="0 0 120 120" fill="none" xmlns="http://www.w3.org/2000/svg">
<g clip-path="url(#clip0_153_378)">
<path d="M4.65279 38.9512L6.59803 32.5547L23.632 45.9978L21.6867 52.3683L-0.0262871 54.2405L2.0241 47.5059L16.5871 47.2979L16.6397 47.1159L4.62651 38.9772L4.65279 38.9512Z" fill="white"/>
<path d="M15.5619 21.3738L31.4655 33.7768L27.4962 38.7692L11.5926 26.3662L15.5619 21.3738Z" fill="white"/>
<path d="M41.218 12.1691L43.4261 15.9394L34.2782 21.1658L35.9343 24L47.2902 17.4995L49.6561 21.5558L32.7273 31.2286L22.5805 13.8852L39.2201 4.36841L41.586 8.42475L30.4929 14.7693L32.0175 17.3955L41.1654 12.1691H41.218Z" fill="white"/>
<path d="M60.5389 21.2698L54.1249 20.5677L50.3395 0L56.8324 0.702059L58.1993 14.8732L58.8828 12.8451L64.0088 1.48212L69.6342 2.10618L72.1577 14.3272L72.3943 16.4334L76.8368 2.88624L83.3297 3.5883L75.1019 22.8559L68.6616 22.1538L66.138 8.06067L60.5389 21.2698Z" fill="white"/>
<path d="M108.381 25.4301C109.801 27.1723 111.22 29.1484 110.957 31.8266C110.826 33.1267 110.221 34.7909 108.302 36.325C106.515 37.7291 104.754 38.1452 103.36 38.0932C100.627 37.9892 98.9967 36.169 96.9463 33.6468L93.9496 29.9545L89.1654 33.7508L85.1435 28.7844L100.942 16.2513L108.381 25.4301ZM97.4721 27.1723L100.022 30.3185C100.548 30.9686 101.336 31.8006 102.256 31.9567C102.808 32.0347 103.492 31.8786 104.175 31.3586C104.911 30.7606 105.043 30.1105 105.016 29.5905C104.99 29.1744 104.78 28.5244 103.939 27.4843L101.257 24.182L97.4721 27.1983V27.1723Z" fill="white"/>
<path d="M118.081 42.7216L119.816 55.5926C120.053 57.2568 120.263 59.3109 119.211 61.1311C118.16 63.0032 116.372 63.5233 115.032 63.7053C113.796 63.8613 112.508 63.7573 111.352 62.9252C110.668 62.4052 109.958 61.5471 109.59 60.585H109.485C109.485 61.6251 109.091 62.5352 108.565 63.1073C107.645 64.1473 106.436 64.3294 105.542 64.5114L103.597 64.8754C102.44 65.0834 101.704 65.2914 100.784 66.0715L99.9168 59.545C100.705 58.7649 101.336 58.6089 102.335 58.4269L103.755 58.1668C104.491 58.0108 105.595 57.8808 106.173 56.9447C106.699 56.0867 106.541 54.7086 106.488 54.2665L106.015 50.7042L98.8653 51.6403L98.0241 45.3478L118.107 42.7216H118.081ZM110.09 50.1842L110.721 54.8386C110.826 55.5926 111.089 56.5547 111.509 56.9967C111.772 57.2828 112.403 57.7248 113.455 57.5688C114.164 57.4648 114.795 57.1528 115.111 56.3987C115.4 55.7226 115.268 54.9426 115.163 54.1885L114.559 49.5861L110.116 50.1582L110.09 50.1842Z" fill="white"/>
<path d="M94.1599 86.6912C92.8456 83.0249 94.1599 79.3066 95.3428 76.9144C96.5257 74.5222 98.6024 71.1679 102.309 69.8678C104.07 69.2437 106.804 68.9057 110.274 70.5438C113.744 72.182 115.189 74.5222 115.794 76.2643C117.108 79.9306 115.794 83.6489 114.611 86.0671C113.455 88.4333 111.352 91.7876 107.671 93.0877C105.91 93.7118 103.176 94.0498 99.7065 92.4117C96.2366 90.7735 94.7908 88.4333 94.1862 86.6912H94.1599ZM110.747 80.0866C110.379 79.0205 109.38 77.6684 107.303 76.6803C105.227 75.6923 103.544 75.7963 102.467 76.1603C100.916 76.7064 100.101 77.9285 99.6276 78.9425C99.1544 79.9566 98.6813 81.3607 99.2333 82.8689C99.6276 83.935 100.6 85.2871 102.677 86.2752C104.754 87.2632 106.436 87.1592 107.514 86.7952C109.065 86.2491 109.88 85.027 110.353 84.013C110.826 82.9989 111.299 81.5948 110.747 80.0866Z" fill="white"/>
<path d="M89.2968 97.5862L88.8499 96.9101C88.4031 96.234 87.851 95.532 87.1413 95.324C86.6944 95.194 86.0372 95.168 85.0909 95.792C84.5915 96.13 84.0131 96.6501 83.9343 97.4822C83.8817 98.3142 84.4074 99.2243 84.828 99.8223L91.9781 110.379L86.6418 113.916L79.6495 103.593C78.7295 102.241 77.2311 99.9524 77.7043 97.4041C78.2037 94.7259 80.7273 93.0358 82.3571 91.9437C83.9606 90.8776 86.5893 89.1875 89.3494 89.7335C91.8992 90.2535 93.2924 92.2817 94.3439 93.8158L94.5279 94.1019L89.2968 97.5602V97.5862Z" fill="white"/>
<path d="M57.7262 112.121L57.3056 107.805L67.7941 106.765L67.4786 103.515L54.414 104.789L53.9409 100.134L73.3932 98.2362L75.391 118.154L56.2541 120.026L55.7809 115.372L68.5301 114.124L68.2147 111.107L57.7262 112.147V112.121Z" fill="white"/>
<path d="M29.9409 97.1961C31.6758 93.7638 34.5674 93.0618 35.6977 92.9318C38.0898 92.5938 40.7185 93.6078 43.3472 94.8299C46.081 96.104 48.9463 97.6902 50.2607 101.2C51.391 104.269 50.6024 107.129 49.5509 109.339C48.4732 111.601 46.7119 113.968 43.6364 115.06C40.0088 116.334 36.7229 115.138 34.2256 113.994C30.7032 112.355 28.9157 110.691 27.9956 109.209C26.2081 106.375 26.9441 103.905 27.575 102.527L33.4896 105.283C33.0427 106.479 33.437 107.415 33.6999 107.857C33.9628 108.299 34.5674 108.975 36.092 109.677C37.1435 110.171 38.4315 110.587 40.0088 109.989C41.0077 109.599 42.2957 108.611 43.3472 106.427C44.3198 104.373 44.2935 102.839 43.8992 101.747C43.3472 100.212 42.138 99.4583 41.034 98.9643C40.1928 98.5742 39.115 98.1322 37.9847 98.3922C37.3275 98.5222 36.4337 98.9643 35.8554 99.9784L29.9934 97.2481L29.9409 97.1961Z" fill="white"/>
<path d="M21.3713 99.7963L17.5071 102.501L5.94085 86.3792L9.80504 83.675L13.7218 89.1354L26.3658 80.2687L30.0723 85.4431L17.4283 94.3098L21.3713 99.7963Z" fill="white"/>
<path d="M11.724 78.8646L8.6747 66.8256L13.012 65.7595L16.0613 77.7985L11.724 78.8646Z" fill="white"/>
</g>
<defs>
<clipPath id="clip0_153_378">
<rect width="120" height="120" fill="white"/>
</clipPath>
</defs>
</svg>
