<svg width="225" height="21" viewBox="0 0 225 21" fill="none" xmlns="http://www.w3.org/2000/svg">
<path d="M14.3643 12.8804L11.4891 5.71623L8.66719 12.8804H14.3643ZM5.84523 20.0445H0.733765L9.09315 0.903692H13.9118L22.2712 20.0445H17.1597L15.5357 16.1616H7.46919L5.84523 20.0445ZM28.9012 9.40767H34.0925C34.4919 9.40767 34.9444 9.38033 35.4236 9.2983C35.9028 9.24361 36.3022 9.02486 36.6749 8.64204C36.808 8.50532 36.9411 8.28657 37.0742 8.01313C37.2073 7.73969 37.2872 7.41156 37.2872 7.0014C37.2872 6.50921 37.1807 6.12639 36.9944 5.82561C36.7814 5.52483 36.595 5.30607 36.382 5.14201C36.2223 5.05998 36.0626 4.97795 35.8496 4.92326C35.6366 4.86857 35.397 4.84123 35.184 4.81388C34.9711 4.78654 34.7581 4.75919 34.5451 4.75919C34.3321 4.75919 34.1458 4.73185 34.0393 4.73185H28.9012V9.40767ZM24.0026 0.903692H35.0243C35.4769 0.903692 35.9827 0.931033 36.5152 0.95838C37.0476 0.985724 37.6067 1.06776 38.1391 1.17713C38.6716 1.28651 39.204 1.47792 39.7098 1.69667C40.2156 1.91542 40.6682 2.24355 41.0676 2.62636C41.6 3.20059 41.9461 3.8295 42.1058 4.48575C42.2656 5.14201 42.3454 5.74358 42.3454 6.26311C42.3454 6.91937 42.2389 7.52094 42.0792 8.09516C41.8928 8.66938 41.5734 9.18892 41.1208 9.65377C40.8013 9.98189 40.4286 10.2827 40.0027 10.5014C39.5767 10.7202 39.1508 10.8842 38.7248 10.9936V11.103C39.0975 11.185 39.4968 11.3217 39.8962 11.5132C40.2689 11.7046 40.615 11.9507 40.9078 12.2514C41.1208 12.4975 41.2805 12.7436 41.4136 12.9624C41.5201 13.2085 41.6266 13.4546 41.6799 13.7007C41.7331 13.9468 41.7597 14.1929 41.7864 14.439C41.7864 14.6851 41.813 14.9312 41.8396 15.1499L41.9727 17.3101C41.9993 17.8023 42.0526 18.2398 42.1591 18.6499C42.2389 19.0874 42.4253 19.5523 42.7448 20.0445H37.5534C37.234 19.6343 37.0476 19.2515 36.9944 18.8687C36.9145 18.5132 36.8612 18.1031 36.8346 17.6109L36.7548 16.0249C36.7015 15.4507 36.6216 14.9585 36.4619 14.5757C36.3022 14.1929 36.0892 13.9194 35.8762 13.7007C35.61 13.4819 35.2373 13.2905 34.7847 13.1811C34.3321 13.0718 33.9062 13.0171 33.4802 13.0171H28.9012V20.0445H24.0026V0.903692ZM60.9888 8.50532V12.1147H50.7658V16.2163H63.1452V20.0445H45.8673V0.903692H62.8523V4.73185H50.7658V8.50532H60.9888ZM65.0933 4.73185V0.903692H82.9834V4.73185H76.4876V20.0445H71.5891V4.73185H65.0933ZM100.48 8.50532V12.1147H90.2571V16.2163H102.636V20.0445H85.3586V0.903692H102.344V4.73185H90.2571V8.50532H100.48ZM115.534 13.8374V13.9468C115.534 14.4116 115.587 14.7944 115.747 15.0679C115.88 15.3687 116.039 15.6148 116.252 15.7788C116.465 16.0249 116.758 16.2163 117.078 16.353C117.397 16.4898 117.717 16.5991 118.036 16.6538C118.356 16.7359 118.675 16.7905 118.994 16.7905C119.314 16.8179 119.58 16.8179 119.846 16.8179C120.539 16.8179 121.098 16.7905 121.524 16.7085C121.923 16.6538 122.242 16.5445 122.509 16.3804C122.908 16.1616 123.201 15.8882 123.414 15.5054C123.627 15.1499 123.733 14.7944 123.733 14.4663C123.733 14.2476 123.653 14.0015 123.494 13.6733C123.334 13.3452 122.988 13.0718 122.429 12.8257C122.269 12.771 122.083 12.7163 121.87 12.6616C121.657 12.6069 121.417 12.5249 121.177 12.4702C120.911 12.4155 120.672 12.3882 120.432 12.3335C120.192 12.2788 120.006 12.2514 119.846 12.1968L117.158 11.7593C116.625 11.7046 116.119 11.6225 115.587 11.5132C115.054 11.4038 114.522 11.2944 114.043 11.1303C113.537 10.9663 113.084 10.7749 112.658 10.5561C112.232 10.3374 111.86 10.0366 111.567 9.68111C111.354 9.43501 111.114 9.07954 110.875 8.58735C110.635 8.09516 110.529 7.4389 110.529 6.61858C110.529 5.52483 110.742 4.56779 111.168 3.74747C111.593 2.95449 112.232 2.27089 113.084 1.72401C113.537 1.45057 114.016 1.20448 114.549 1.01307C115.054 0.849004 115.56 0.712284 116.093 0.602908C116.625 0.493532 117.131 0.438844 117.663 0.411497C118.196 0.384155 118.702 0.356812 119.181 0.356812C120.858 0.356812 122.216 0.493532 123.227 0.712284C124.239 0.95838 125.038 1.25916 125.677 1.64198C126.209 1.97011 126.662 2.35292 127.008 2.73574C127.327 3.11855 127.593 3.52871 127.78 3.93887C127.94 4.34903 128.073 4.75919 128.126 5.14201C128.179 5.55217 128.179 5.93499 128.179 6.29046H123.227C123.174 5.96233 123.094 5.6342 122.934 5.33342C122.775 5.03263 122.509 4.75919 122.109 4.54044C121.896 4.43107 121.63 4.34903 121.364 4.267C121.098 4.21231 120.805 4.15763 120.539 4.10294C120.272 4.07559 120.006 4.04825 119.74 4.04825C119.474 4.04825 119.287 4.02091 119.128 4.02091C118.648 4.02091 118.196 4.07559 117.743 4.13028C117.264 4.21231 116.891 4.34903 116.572 4.54044C116.252 4.75919 116.039 5.00529 115.88 5.27873C115.72 5.57951 115.64 5.8803 115.64 6.20842C115.64 6.64593 115.773 6.97406 116.066 7.19281C116.359 7.41156 116.652 7.54828 116.971 7.65766C117.078 7.71234 117.237 7.76703 117.397 7.82172C117.557 7.87641 117.77 7.90375 118.009 7.95844C118.249 8.01313 118.542 8.09516 118.888 8.14985C119.234 8.20454 119.66 8.28657 120.166 8.34126L122.296 8.69673C123.121 8.86079 123.973 9.02486 124.825 9.24361C125.677 9.46236 126.395 9.81783 127.034 10.2827C127.806 10.8842 128.312 11.5678 128.552 12.3335C128.791 13.0991 128.925 13.8101 128.925 14.4663C128.925 15.6421 128.685 16.5991 128.259 17.3374C127.833 18.1031 127.327 18.6773 126.742 19.1148C126.475 19.3062 126.182 19.4976 125.836 19.6617C125.464 19.8257 125.038 19.9898 124.532 20.1265C123.999 20.2632 123.387 20.3726 122.668 20.4546C121.95 20.564 121.124 20.5914 120.166 20.5914C119.42 20.5914 118.648 20.5914 117.876 20.5367C117.104 20.482 116.359 20.4 115.64 20.2359C114.921 20.0992 114.256 19.8804 113.617 19.5796C112.978 19.2788 112.419 18.8687 111.94 18.3492C111.593 17.9937 111.327 17.6109 111.114 17.2007C110.901 16.8179 110.768 16.4077 110.662 16.0249C110.555 15.6421 110.475 15.2866 110.449 14.9038C110.422 14.5483 110.422 14.2202 110.422 13.9468V13.8374H115.534ZM129.777 4.73185V0.903692H147.667V4.73185H141.171V20.0445H136.273V4.73185H129.777ZM168.176 12.5249C168.176 12.9077 168.149 13.3452 168.122 13.8101C168.096 14.3022 168.016 14.7944 167.909 15.2866C167.776 15.8062 167.59 16.3257 167.324 16.8452C167.058 17.3648 166.711 17.857 166.286 18.2945C165.78 18.814 165.247 19.2242 164.662 19.5249C164.076 19.8257 163.464 20.0445 162.825 20.1812C162.186 20.3453 161.52 20.4273 160.855 20.482C160.189 20.5367 159.55 20.5367 158.911 20.5367C158.272 20.5367 157.607 20.5367 156.941 20.482C156.276 20.4273 155.637 20.3453 154.998 20.1812C154.359 20.0445 153.746 19.8257 153.161 19.5249C152.575 19.2242 152.016 18.814 151.537 18.2945C151.084 17.857 150.738 17.3648 150.472 16.8452C150.206 16.3257 150.019 15.8062 149.913 15.2866C149.78 14.7944 149.7 14.3022 149.673 13.8101C149.647 13.3452 149.647 12.9077 149.647 12.5249V0.903692H154.545V12.0053C154.545 12.2241 154.545 12.4975 154.545 12.7983C154.545 13.0991 154.598 13.3999 154.678 13.728C154.731 14.0561 154.838 14.3569 154.998 14.6851C155.131 15.0132 155.317 15.2866 155.583 15.5327C155.796 15.8062 156.063 15.9976 156.382 16.1343C156.675 16.271 156.968 16.3804 157.287 16.4351C157.58 16.5171 157.873 16.5718 158.166 16.5718C158.432 16.5991 158.698 16.5991 158.911 16.5991C159.124 16.5991 159.364 16.5991 159.657 16.5718C159.923 16.5718 160.216 16.5171 160.535 16.4351C160.828 16.3804 161.121 16.271 161.414 16.1343C161.706 15.9976 161.973 15.8062 162.239 15.5327C162.479 15.2866 162.665 15.0132 162.825 14.6851C162.958 14.3569 163.064 14.0561 163.117 13.728C163.171 13.3999 163.224 13.0991 163.251 12.7983C163.251 12.4975 163.277 12.2241 163.277 12.0053V0.903692H168.176V12.5249ZM176.935 16.2163H179.757C180.077 16.2163 180.423 16.2163 180.849 16.189C181.248 16.189 181.674 16.1343 182.127 16.0523C182.553 15.9702 183.005 15.8335 183.431 15.6421C183.857 15.478 184.256 15.2319 184.629 14.9038C185.082 14.521 185.481 13.9468 185.854 13.2085C186.2 12.4975 186.386 11.5678 186.386 10.4467C186.386 9.2983 186.2 8.34126 185.854 7.63031C185.481 6.91937 185.108 6.39983 184.736 6.04436C184.363 5.74358 183.99 5.49748 183.591 5.30607C183.165 5.14201 182.766 5.00529 182.366 4.92326C181.94 4.84123 181.541 4.78654 181.142 4.75919C180.742 4.75919 180.37 4.73185 180.05 4.73185H176.935V16.2163ZM180.689 0.903692C181.434 0.903692 182.18 0.95838 182.952 1.04041C183.697 1.12244 184.443 1.25916 185.188 1.45057C185.907 1.66932 186.599 1.94276 187.265 2.27089C187.93 2.62636 188.543 3.06387 189.075 3.5834C189.607 4.13028 190.033 4.70451 190.353 5.30607C190.672 5.90764 190.939 6.50921 191.125 7.11078C191.285 7.71234 191.418 8.31391 191.471 8.86079C191.524 9.43501 191.551 9.95455 191.551 10.3921C191.551 11.3217 191.471 12.1694 191.311 12.9077C191.152 13.646 190.965 14.3022 190.726 14.8765C190.486 15.4507 190.22 15.9429 189.927 16.353C189.634 16.7905 189.341 17.146 189.075 17.4195C188.436 18.0757 187.744 18.5679 186.998 18.896C186.226 19.2515 185.454 19.5249 184.656 19.689C183.857 19.8531 183.085 19.9624 182.34 19.9898C181.568 20.0445 180.875 20.0445 180.236 20.0445H172.037V0.903692H180.689ZM199.632 0.903692V20.0445H194.733V0.903692H199.632ZM213.925 4.18497C213.286 4.18497 212.621 4.29435 211.902 4.45841C211.183 4.62247 210.518 5.03263 209.879 5.66155C209.479 6.04436 209.16 6.48186 208.947 6.91937C208.734 7.35687 208.547 7.79438 208.441 8.23188C208.335 8.66938 208.255 9.10689 208.228 9.4897C208.175 9.87252 208.175 10.2006 208.175 10.4741C208.175 10.7475 208.175 11.103 208.228 11.4858C208.255 11.8686 208.335 12.2788 208.441 12.7163C208.547 13.1538 208.734 13.6186 208.947 14.0561C209.16 14.4937 209.479 14.9038 209.879 15.2866C210.518 15.9429 211.183 16.353 211.902 16.5171C212.621 16.6812 213.286 16.7632 213.925 16.7632C214.537 16.7632 215.203 16.6812 215.922 16.5171C216.641 16.353 217.333 15.9429 217.972 15.2866C218.344 14.9038 218.664 14.4937 218.877 14.0561C219.09 13.6186 219.276 13.1538 219.383 12.7163C219.489 12.2788 219.569 11.8686 219.622 11.4858C219.649 11.103 219.676 10.7475 219.676 10.4741C219.676 10.2006 219.649 9.87252 219.622 9.4897C219.569 9.10689 219.489 8.66938 219.383 8.23188C219.276 7.79438 219.09 7.35687 218.877 6.91937C218.664 6.48186 218.344 6.04436 217.972 5.66155C217.333 5.03263 216.641 4.62247 215.922 4.45841C215.203 4.29435 214.537 4.18497 213.925 4.18497ZM225 10.4741C225 11.0483 224.947 11.6499 224.894 12.2514C224.814 12.8804 224.681 13.5093 224.468 14.1382C224.255 14.7671 223.935 15.396 223.562 16.0249C223.19 16.6538 222.684 17.2554 222.072 17.8023C221.699 18.1304 221.273 18.4585 220.794 18.7867C220.315 19.1148 219.729 19.4156 219.063 19.689C218.398 19.9624 217.652 20.1812 216.8 20.3453C215.948 20.5093 214.99 20.5914 213.925 20.5914C212.86 20.5914 211.902 20.5093 211.05 20.3453C210.198 20.1812 209.426 19.9624 208.76 19.689C208.095 19.4156 207.509 19.1148 207.03 18.7867C206.551 18.4585 206.125 18.1304 205.779 17.8023C205.14 17.2554 204.634 16.6538 204.261 16.0249C203.889 15.396 203.596 14.7671 203.383 14.1382C203.17 13.5093 203.01 12.8804 202.957 12.2514C202.877 11.6499 202.85 11.0483 202.85 10.4741C202.85 9.92721 202.877 9.32564 202.957 8.69673C203.01 8.09516 203.17 7.46625 203.383 6.83734C203.596 6.20843 203.889 5.57951 204.261 4.9506C204.634 4.34903 205.14 3.74747 205.779 3.1459C206.125 2.81777 206.551 2.48964 207.03 2.16152C207.509 1.83339 208.095 1.55994 208.76 1.28651C209.426 1.01307 210.198 0.794313 211.05 0.630252C211.902 0.466188 212.86 0.356812 213.925 0.356812C214.99 0.356812 215.948 0.466188 216.8 0.630252C217.652 0.794313 218.398 1.01307 219.063 1.28651C219.729 1.55994 220.315 1.83339 220.794 2.16152C221.273 2.48964 221.699 2.81777 222.072 3.1459C222.684 3.74747 223.19 4.34903 223.562 4.9506C223.935 5.57951 224.255 6.20843 224.468 6.83734C224.681 7.46625 224.814 8.09516 224.894 8.69673C224.947 9.32564 225 9.92721 225 10.4741Z" fill="#F1EEEB"/>
</svg>
